<svg width="38" height="38" viewBox="0 0 38 38" fill="none" xmlns="http://www.w3.org/2000/svg">
<rect width="38" height="38" rx="12" fill="#00BF68"/>
<rect width="38" height="38" rx="12" fill="url(#paint0_linear_350_427)" fill-opacity="0.3"/>
<rect opacity="0.7" x="1.5" y="1.5" width="35" height="35" rx="10.5" stroke="url(#paint1_linear_350_427)" stroke-width="3"/>
<path d="M23.9716 11.9181C23.429 12.7864 22.2852 13.0505 21.4168 12.5079C20.5484 11.9653 20.2843 10.8214 20.8269 9.953C21.3695 9.08461 22.5134 8.82052 23.3818 9.36316C24.2502 9.90579 24.5143 11.0497 23.9716 11.9181Z" fill="white"/>
<path d="M19.0681 12.9326C19.3395 12.4984 19.8771 12.3804 20.3113 12.6517L21.3353 13.3734L22.1912 14.0903C22.6254 14.3616 22.6163 14.8352 22.345 15.2694L18.8724 20.8268C18.601 21.261 18.0291 21.393 17.5949 21.1217L15.7605 19.9754C15.3263 19.7041 15.1942 19.1322 15.4656 18.698L19.0681 12.9326Z" fill="white"/>
<path d="M19.0681 12.9326C19.3395 12.4984 19.8771 12.3804 20.3113 12.6517L20.5733 12.8155C21.0075 13.0868 21.1739 13.6447 20.9026 14.0789L12.5511 27.444C12.2798 27.8782 11.7079 28.0103 11.2737 27.739L11.0116 27.5752C10.5774 27.3039 10.4454 26.732 10.7167 26.2978L19.0681 12.9326Z" fill="white"/>
<path d="M16.877 19.8042C16.5801 19.3871 16.6775 18.8082 17.0947 18.5113L17.3464 18.3321C17.7635 18.0352 18.3423 18.1326 18.6393 18.5497L21.2509 22.2185C21.5478 22.6356 21.4504 23.2144 21.0333 23.5114L20.7815 23.6906C20.3644 23.9875 19.7856 23.89 19.4886 23.4729L16.877 19.8042Z" fill="white"/>
<path d="M22.4302 14.2874C22.1044 13.8924 21.5201 13.8363 21.1251 14.1621L20.8868 14.3588C20.4918 14.6846 20.4357 15.2689 20.7615 15.6638L22.452 17.7132C22.7778 18.1081 23.3621 18.1642 23.7571 17.8384L23.9955 17.6418C24.3904 17.316 24.4465 16.7317 24.1207 16.3367L22.4302 14.2874Z" fill="white"/>
<path d="M19.9354 14.6594C20.4446 14.6064 20.8145 14.1506 20.7615 13.6414L20.7295 13.334C20.6766 12.8248 20.2208 12.4549 19.7115 12.5079L15.302 12.7824C14.7928 12.8354 14.4229 13.2912 14.4759 13.8004L14.5079 14.1078C14.5609 14.617 15.0166 14.9869 15.5259 14.9339L19.9354 14.6594Z" fill="white"/>
<path d="M19.2575 22.7325C19.2879 22.2215 19.7268 21.8318 20.2379 21.8622L20.5464 21.8805C21.0575 21.9109 21.4472 22.3499 21.4168 22.861L21.1935 26.6139C21.1631 27.125 20.7242 27.5147 20.2131 27.4843L19.9046 27.466C19.3935 27.4356 19.0038 26.9966 19.0342 26.4855L19.2575 22.7325Z" fill="white"/>
<path d="M23.4142 15.9122C22.9127 15.8089 22.4225 16.1318 22.3192 16.6333L22.2569 16.9359C22.1537 17.4374 22.4765 17.9276 22.978 18.0309L25.3113 18.4823C25.8128 18.5855 26.303 18.2627 26.4062 17.7612L26.4685 17.4585C26.5717 16.957 26.2489 16.4668 25.7474 16.3636L23.4142 15.9122Z" fill="white"/>
<path d="M16.6146 13.8836C16.6887 13.377 16.3382 12.9062 15.8316 12.832L15.5258 12.7873C15.0192 12.7131 14.5484 13.0636 14.4743 13.5702L14.0356 15.847C13.9614 16.3536 14.312 16.8244 14.8186 16.8986L15.1243 16.9433C15.6309 17.0175 16.1017 16.667 16.1759 16.1604L16.6146 13.8836Z" fill="white"/>
<defs>
<linearGradient id="paint0_linear_350_427" x1="8.70833" y1="7.38889" x2="28.2361" y2="34.3056" gradientUnits="userSpaceOnUse">
<stop stop-color="white"/>
<stop offset="1" stop-color="white" stop-opacity="0"/>
</linearGradient>
<linearGradient id="paint1_linear_350_427" x1="30.3472" y1="34.0417" x2="6.59722" y2="3.69444" gradientUnits="userSpaceOnUse">
<stop stop-color="white" stop-opacity="0.6"/>
<stop offset="1" stop-color="white" stop-opacity="0"/>
</linearGradient>
</defs>
</svg>
