<svg width="26" height="26" viewBox="0 0 26 26" fill="none" xmlns="http://www.w3.org/2000/svg">
<g clip-path="url(#clip0_344_413)">
<path d="M10.7822 2.8273C11.3462 0.502228 14.6537 0.502228 15.2178 2.8273C15.3024 3.17659 15.4683 3.50096 15.702 3.77401C15.9357 4.04707 16.2306 4.26108 16.5626 4.39864C16.8946 4.5362 17.2544 4.59342 17.6128 4.56564C17.9711 4.53786 18.3178 4.42586 18.6246 4.23876C20.6677 2.99413 23.0073 5.33245 21.7627 7.37682C21.5759 7.68355 21.4641 8.03004 21.4363 8.38811C21.4086 8.74619 21.4658 9.10576 21.6032 9.43758C21.7406 9.76941 21.9543 10.0641 22.2271 10.2978C22.4998 10.5315 22.8239 10.6975 23.1728 10.7823C25.4979 11.3464 25.4979 14.6539 23.1728 15.218C22.8236 15.3026 22.4992 15.4685 22.2261 15.7022C21.9531 15.9359 21.7391 16.2308 21.6015 16.5628C21.4639 16.8948 21.4067 17.2546 21.4345 17.613C21.4623 17.9713 21.5743 18.318 21.7614 18.6248C23.006 20.6679 20.6677 23.0075 18.6233 21.7629C18.3166 21.5761 17.9701 21.4642 17.612 21.4365C17.254 21.4088 16.8944 21.466 16.5626 21.6034C16.2307 21.7408 15.936 21.9545 15.7023 22.2273C15.4687 22.5 15.3027 22.824 15.2178 23.173C14.6537 25.4981 11.3462 25.4981 10.7822 23.173C10.6975 22.8237 10.5316 22.4994 10.2979 22.2263C10.0642 21.9533 9.76939 21.7392 9.43736 21.6017C9.10533 21.4641 8.74551 21.4069 8.38719 21.4347C8.02887 21.4625 7.68217 21.5745 7.37531 21.7616C5.33227 23.0062 2.99263 20.6679 4.23726 18.6235C4.42409 18.3168 4.5359 17.9703 4.56362 17.6122C4.59134 17.2541 4.53417 16.8946 4.39677 16.5627C4.25937 16.2309 4.04561 15.9362 3.77287 15.7025C3.50013 15.4689 3.1761 15.3029 2.82712 15.218C0.502044 14.6539 0.502044 11.3464 2.82712 10.7823C3.17641 10.6977 3.50078 10.5318 3.77383 10.2981C4.04688 10.0644 4.2609 9.76957 4.39846 9.43754C4.53602 9.10551 4.59324 8.74569 4.56545 8.38737C4.53767 8.02905 4.42568 7.68235 4.23858 7.3755C2.99395 5.33245 5.33227 2.99281 7.37664 4.23744C8.70071 5.04248 10.4167 4.33013 10.7822 2.8273Z" stroke="#333333" stroke-width="2" stroke-linecap="round" stroke-linejoin="round"/>
<path d="M13 16.25C14.7949 16.25 16.25 14.7949 16.25 13C16.25 11.2051 14.7949 9.75 13 9.75C11.2051 9.75 9.75 11.2051 9.75 13C9.75 14.7949 11.2051 16.25 13 16.25Z" stroke="#333333" stroke-width="2" stroke-linecap="round" stroke-linejoin="round"/>
</g>
<defs>
<clipPath id="clip0_344_413">
<rect width="26" height="26" fill="white"/>
</clipPath>
</defs>
</svg>
