<svg width="26" height="26" viewBox="0 0 26 26" fill="none" xmlns="http://www.w3.org/2000/svg">
<path d="M3 11.0369C3 10.0771 3.45925 9.17522 4.23548 8.61069L11.2355 3.51978C12.2874 2.75473 13.7126 2.75473 14.7645 3.51978L21.7645 8.61069C22.5407 9.17522 23 10.0771 23 11.0369V21C23 22.6569 21.6569 24 20 24H6C4.34315 24 3 22.6569 3 21V11.0369Z" stroke="#333333" stroke-width="2"/>
<path d="M2 4C2 3.44772 2.44772 3 3 3H8C8.55228 3 9 3.44772 9 4V8.5C9 10.433 7.433 12 5.5 12C3.567 12 2 10.433 2 8.5V4Z" fill="white" stroke="#333333" stroke-width="2"/>
<path d="M9 3H17V8C17 10.2091 15.2091 12 13 12C10.7909 12 9 10.2091 9 8V3Z" fill="white" stroke="#333333" stroke-width="2"/>
<path d="M17 4C17 3.44772 17.4477 3 18 3H23C23.5523 3 24 3.44772 24 4V8.5C24 10.433 22.433 12 20.5 12C18.567 12 17 10.433 17 8.5V4Z" fill="white" stroke="#333333" stroke-width="2"/>
</svg>
